<?xml version="1.0" encoding="utf-8"?>
<!-- Generator: Adobe Illustrator 16.0.5, SVG Export Plug-In . SVG Version: 6.00 Build 0)  -->
<!DOCTYPE svg PUBLIC "-//W3C//DTD SVG 1.1//EN" "http://www.w3.org/Graphics/SVG/1.1/DTD/svg11.dtd">
<svg version="1.1" id="Layer_1" xmlns="http://www.w3.org/2000/svg" xmlns:xlink="http://www.w3.org/1999/xlink" x="0px" y="0px"
	 width="141.125px" height="43px" viewBox="0 0 141.125 43" enable-background="new 0 0 141.125 43" xml:space="preserve">
<text transform="matrix(1 0 0 1 62.5273 12.3423)"><tspan x="0" y="0" fill="#5F7CA0" font-family="'DIN-Bold'" font-size="11.9924">W</tspan><tspan x="10.637" y="0" fill="#919191" font-family="'DIN-Regular'" font-size="11.9924">ORLD</tspan></text>
<text transform="matrix(1 0 0 1 62.5273 25.5269)"><tspan x="0" y="0" fill="#51687C" font-family="'DIN-Bold'" font-size="11.9924">A</tspan><tspan x="7.651" y="0" fill="#919191" font-family="'DIN-Regular'" font-size="11.9924">FFAIRS</tspan></text>
<text transform="matrix(1 0 0 1 62.5273 38.9556)"><tspan x="0" y="0" fill="#495968" font-family="'DIN-Bold'" font-size="11.9924">C</tspan><tspan x="7.436" y="0" fill="#919191" font-family="'DIN-Regular'" font-size="11.9924">ONFERENCE</tspan></text>
<path fill="#51687C" d="M56.392,4.468c-2.735-1.194-5.921,0.057-7.113,2.792l-7.407,13.434l-2.042-5.982
	C39.172,10.901,35.852,8,31.853,8c-4.047,0-7.401,2.973-8,6.853l-2.02,5.924L14.381,7.261c-1.194-2.735-4.379-3.986-7.118-2.792
	c-2.736,1.194-3.986,4.38-2.792,7.117c0.135,0.31,0.297,0.599,0.48,0.869l9.883,17.929l0,0l0.041,0.074l2.317,4.203l0.723,1.203
	c0.019,0.045,0.035,0.092,0.056,0.138c1.194,2.735,4.381,3.987,7.117,2.793c1.203-0.525,2.118-1.436,2.665-2.524l0.251-0.384
	c0.002-0.001,0.003-0.003,0.004-0.004l0,0l3.843-5.858l0.026-0.04l4.021,6.279v-0.001c0.547,1.091,1.465,2.005,2.669,2.531
	c2.696,1.177,5.832-0.025,7.066-2.681l-0.01,0.022l0.142-0.253l0.698-1.222l12.243-22.211c0.182-0.269,0.343-0.556,0.479-0.864
	C60.381,8.848,59.13,5.662,56.392,4.468z"/>
<circle fill="#51687C" cx="31.853" cy="16.045" r="8.094"/>
<circle fill="#5F7CA0" cx="9.427" cy="9.423" r="5.406"/>
<polygon fill="#51687C" points="31.853,17.261 24.685,12.415 18.129,31.636 27.707,36.344 31.853,30.025 25.944,20.822 "/>
<polygon fill="#51687C" points="45.574,31.553 39.019,12.336 31.853,17.18 37.762,20.741 31.853,29.945 35.899,36.264 "/>
<polygon fill="#495968" points="31.853,17.18 25.838,20.74 31.853,30.025 37.762,20.741 "/>
<circle fill="#5C7691" cx="22.926" cy="33.839" r="5.405"/>
<line fill="none" x1="31.853" y1="16.096" x2="26.55" y2="25.754"/>
<line fill="none" x1="31.853" y1="16.096" x2="25.944" y2="11.446"/>
<polygon fill="#5F7CA0" points="14.381,7.261 4.472,11.585 17.194,34.66 22.054,21.177 "/>
<polygon fill="#5C7691" points="27.775,31.553 21.789,20.925 16.905,34.064 17.928,35.883 "/>
<path fill="#5F7CA0" d="M49.278,7.261c-1.198,2.735,0.055,5.922,2.79,7.118c2.736,1.193,5.922-0.056,7.118-2.793
	c1.194-2.737-0.057-5.923-2.795-7.117C53.656,3.274,50.471,4.525,49.278,7.261z"/>
<defs>
	<filter id="Adobe_OpacityMaskFilter" filterUnits="userSpaceOnUse" x="14.836" y="30.383" width="13.174" height="8.863">
		<feFlood  style="flood-color:white;flood-opacity:1" result="back"/>
		<feBlend  in="SourceGraphic" in2="back" mode="normal"/>
	</filter>
</defs>
<mask maskUnits="userSpaceOnUse" x="14.836" y="30.383" width="13.174" height="8.863" id="SVGID_1_">
	<g filter="url(#Adobe_OpacityMaskFilter)">
		<linearGradient id="SVGID_2_" gradientUnits="userSpaceOnUse" x1="19.5381" y1="38.3579" x2="21.5513" y2="32.8267">
			<stop  offset="0" style="stop-color:#FFFFFF"/>
			<stop  offset="1" style="stop-color:#000000"/>
		</linearGradient>
		<path fill="url(#SVGID_2_)" d="M17.926,35.854c0.019,0.048,0.026,0.099,0.047,0.146c1.194,2.735,4.381,3.987,7.117,2.793
			c0.983-0.432,2.396-2.082,2.951-2.912l-3.705-1.07l-4.018-0.972l-5.482-3.458l0,0l3.03,5.5L17.926,35.854z"/>
	</g>
</mask>
<path mask="url(#SVGID_1_)" fill="#506371" d="M17.926,35.854c0.019,0.048,0.026,0.099,0.047,0.146
	c1.194,2.735,4.381,3.987,7.117,2.793c0.983-0.432,2.363-2.082,2.92-2.912l-3.674-1.07l-4.018-0.972l-5.482-3.458l0,0l3.106,5.524
	L17.926,35.854z"/>
<path fill="#5C7691" d="M35.776,31.676c-1.194,2.737,0.056,5.923,2.792,7.118c2.735,1.193,5.923-0.059,7.118-2.793
	c1.192-2.738-0.057-5.923-2.791-7.117C40.155,27.69,36.971,28.941,35.776,31.676z"/>
<polygon fill="#5F7CA0" points="49.278,7.261 59.187,11.585 46.465,34.66 41.604,21.177 "/>
<polygon fill="#5C7691" points="35.883,31.553 41.899,20.68 46.76,34.161 45.767,35.883 "/>
<defs>
	<filter id="Adobe_OpacityMaskFilter_1_" filterUnits="userSpaceOnUse" x="35.664" y="30.383" width="13.158" height="8.863">
		<feFlood  style="flood-color:white;flood-opacity:1" result="back"/>
		<feBlend  in="SourceGraphic" in2="back" mode="normal"/>
	</filter>
</defs>
<mask maskUnits="userSpaceOnUse" x="35.664" y="30.383" width="13.158" height="8.863" id="SVGID_3_">
	<g filter="url(#Adobe_OpacityMaskFilter_1_)">
		
			<linearGradient id="SVGID_4_" gradientUnits="userSpaceOnUse" x1="-83.3965" y1="38.3574" x2="-81.3836" y2="32.8271" gradientTransform="matrix(-1 0 0 1 -39.2744 0)">
			<stop  offset="0" style="stop-color:#FFFFFF"/>
			<stop  offset="1" style="stop-color:#000000"/>
		</linearGradient>
		<path fill="url(#SVGID_4_)" d="M45.732,35.854c-0.021,0.048-0.027,0.099-0.046,0.146c-1.195,2.735-4.383,3.987-7.118,2.793
			c-0.983-0.432-2.396-2.082-2.951-2.912l3.706-1.07l4.014-0.972l5.485-3.458l0,0l-3.031,5.5L45.732,35.854z"/>
	</g>
</mask>
<path mask="url(#SVGID_3_)" fill="#506371" d="M45.732,35.854c-0.021,0.048-0.027,0.099-0.046,0.146
	c-1.195,2.735-4.383,3.987-7.118,2.793c-0.983-0.432-2.35-2.082-2.904-2.912l3.659-1.07l4.014-0.972l5.485-3.458l0,0l-3.197,5.753
	L45.732,35.854z"/>
<circle fill="#FFFFFF" cx="31.799" cy="16.045" r="7.548"/>
<g>
	<path fill="#5F7CA0" d="M32.812,16.099V15.13l0.625-1.166l1.913-0.999l0.444,0.458l0.97-0.083l0.5-0.375h-0.749L35.6,12.143
		l0.195,0.616l-0.755-0.374l-0.562,0.125l-0.166,0.665l-0.666,0.397l-0.251-1.145l0.708-0.084l-0.414-0.375l0.456-0.375l0.291-0.338
		l0.374-0.244l-0.165-0.666l-0.417-0.333l0.25,0.791l-0.292,0.452l-0.415-0.619v-0.88l0.541-0.055l0.333-0.27l-0.459-0.374
		l0.303-0.113l1.82,0.756l0.956,0.894l0.989,1.104l0.319,1.258l-0.392,0.009l0.951,0.605l-0.068,1.058l-0.22,0.75
		c0,0-0.873-1.498-0.873-1.372c0,0.124,0.647,1.579,0.647,1.579l0.551-0.249v1.123l-0.365,0.958l-0.186,1.294l-0.391,0.89
		l-0.464,0.831l-0.595,0.861h-0.861l0.084-2.753l-0.209-0.947l-0.709-0.623l-1.205,0.623l-1.29-0.623L32.812,16.099z"/>
	<polygon fill="#5F7CA0" points="29.138,10.179 29.36,10.636 29.36,11.255 28.571,11.552 28.571,12.142 27.323,12.301 
		26.863,12.841 26.495,13.091 26.159,14.048 25.891,13.257 25.284,13.341 25.118,14.381 25.368,15.088 25.534,16.099 26.495,15.889 
		27.405,16.544 28.362,17.333 28.836,18.125 30.233,18.748 29.968,19.716 29.776,20.737 28.836,20.955 28.404,21.91 28.362,22.618 
		28.362,22.618 27.873,22.539 27.199,21.951 26.495,19.913 25.381,18.14 25.284,16.42 24.939,14.838 24.429,14.131 24.841,12.672 
		25.201,11.596 26.495,10.676 27.81,9.354 29.535,8.708 28.836,9.639 29.138,9.889 	"/>
	<polygon opacity="0.15" fill="#5F7CA0" points="24.841,12.672 25.284,13.341 24.429,14.131 	"/>
	<polygon opacity="0.21" fill="#5F7CA0" points="25.284,13.341 25.201,11.596 24.841,12.672 	"/>
	<polygon opacity="0.15" fill="#5F7CA0" points="25.201,11.596 26.495,10.676 26.832,11.796 	"/>
	<polygon opacity="0.18" fill="#5F7CA0" points="25.201,11.596 26.832,11.796 25.891,13.257 	"/>
	<polygon opacity="0.1" fill="#5F7CA0" points="26.495,10.676 27.81,9.354 27.331,10.763 26.832,11.796 	"/>
	<polygon opacity="0.02" fill="#5F7CA0" points="27.81,9.354 28.836,9.639 28.423,10.346 	"/>
	<polygon opacity="0.07" fill="#5F7CA0" points="28.423,10.346 27.331,10.763 27.81,9.354 	"/>
	<polygon opacity="0.13" fill="#5F7CA0" points="27.331,10.763 28.571,11.552 28.423,10.346 	"/>
	<polygon opacity="0.07" fill="#5F7CA0" points="28.423,10.346 29.138,10.179 29.138,9.889 28.836,9.639 	"/>
	<polygon opacity="0.02" fill="#5F7CA0" points="28.423,10.346 29.36,11.255 29.36,10.636 29.138,10.179 	"/>
	<polygon opacity="0.15" fill="#5F7CA0" points="28.423,10.346 28.571,11.552 29.36,11.255 	"/>
	<polygon opacity="0.05" fill="#5F7CA0" points="28.836,9.639 29.535,8.708 27.81,9.354 	"/>
	<polygon opacity="0.08" fill="#5F7CA0" points="27.331,10.763 27.323,12.301 28.571,11.552 	"/>
	<polygon opacity="0.05" fill="#5F7CA0" points="27.323,12.301 28.571,12.142 28.571,11.552 	"/>
	<polygon opacity="0.14" fill="#5F7CA0" points="26.832,11.796 27.323,12.301 27.331,10.763 	"/>
	<polygon opacity="0.08" fill="#5F7CA0" points="25.891,13.257 26.495,13.091 27.008,12.672 26.832,11.796 	"/>
	<polygon opacity="0.07" fill="#5F7CA0" points="27.008,12.672 27.323,12.301 26.832,11.796 	"/>
	<polygon opacity="0.21" fill="#5F7CA0" points="25.284,13.341 25.201,11.596 25.891,13.257 	"/>
	<polygon opacity="0.14" fill="#5F7CA0" points="25.891,13.257 26.159,14.048 26.495,13.091 	"/>
	<polygon opacity="0.21" fill="#5F7CA0" points="24.429,14.131 24.939,14.838 25.118,14.381 25.284,13.341 	"/>
	<polygon opacity="0.28" fill="#5F7CA0" points="24.939,14.838 25.284,16.42 25.534,16.099 	"/>
	<polygon opacity="0.21" fill="#5F7CA0" points="25.534,16.099 25.368,15.088 25.118,14.381 24.939,14.838 	"/>
	<polygon opacity="0.15" fill="#5F7CA0" points="25.284,16.42 25.891,17.479 28.362,17.333 26.495,15.889 25.534,16.099 	"/>
	<polygon opacity="0.28" fill="#5F7CA0" points="25.891,17.479 25.381,18.14 25.284,16.42 	"/>
	<polygon fill="#5F7CA0" points="30.65,10.804 31.148,10.137 31.886,9.756 31.886,9.431 32.065,9.057 31.481,8.708 30.733,9.097 
		30.733,9.597 30.233,10.346 30.65,10.804 	"/>
	<polygon opacity="0.15" fill="#5F7CA0" points="25.891,17.479 26.495,19.913 25.381,18.14 	"/>
	<polygon opacity="0.12" fill="#5F7CA0" points="25.891,17.479 28.272,19.164 30.233,18.748 28.836,18.125 28.362,17.333 	"/>
	<polygon opacity="0.21" fill="#5F7CA0" points="28.272,19.164 26.824,20.864 26.449,19.841 25.891,17.479 	"/>
	<polygon opacity="0.15" fill="#5F7CA0" points="28.272,19.164 29.776,20.737 30.233,18.748 	"/>
	<polygon opacity="0.23" fill="#5F7CA0" points="28.272,19.164 29.776,20.737 28.836,20.955 27.427,20.157 	"/>
	<polygon opacity="0.35" fill="#5F7CA0" points="27.427,20.157 27.876,22.543 27.199,21.951 	"/>
	<polygon opacity="0.27" fill="#5F7CA0" points="26.824,20.864 27.199,21.951 27.427,20.157 	"/>
	<polygon opacity="0.3" fill="#5F7CA0" points="27.427,20.157 28.404,21.91 28.836,20.955 	"/>
	<polygon opacity="0.3" fill="#5F7CA0" points="28.404,21.91 27.876,22.543 27.427,20.157 	"/>
	<polygon opacity="0.24" fill="#5F7CA0" points="28.404,21.91 28.362,22.618 27.876,22.543 	"/>
	<polygon opacity="0.07" fill="#5F7CA0" points="30.65,10.804 30.733,9.597 30.233,10.346 	"/>
	<polygon opacity="0.1" fill="#5F7CA0" points="30.733,9.597 31.886,9.756 31.148,10.137 30.65,10.804 	"/>
	<polygon opacity="0.05" fill="#5F7CA0" points="30.733,9.597 31.481,8.708 30.733,9.097 	"/>
	<polygon opacity="0.02" fill="#5F7CA0" points="30.733,9.597 31.481,8.708 32.065,9.057 31.886,9.431 31.886,9.756 	"/>
	<polygon opacity="0.12" fill="#5F7CA0" points="33.438,13.964 34.188,15.887 32.979,16.971 32.812,16.099 32.812,15.13 	"/>
	<polygon opacity="0.18" fill="#5F7CA0" points="34.188,15.887 35.475,16.971 34.27,17.594 32.979,16.971 	"/>
	<polygon opacity="0.07" fill="#5F7CA0" points="33.438,13.964 35.351,12.966 35.475,14.131 34.188,15.887 	"/>
	<polygon opacity="0.14" fill="#5F7CA0" points="34.188,15.887 35.993,15.239 35.475,14.131 	"/>
	<polygon opacity="0.21" fill="#5F7CA0" points="35.475,16.971 35.993,15.239 34.188,15.887 	"/>
	<polygon opacity="0.21" fill="#5F7CA0" points="35.993,15.239 36.912,16.683 35.475,16.971 	"/>
	<polygon opacity="0.12" fill="#5F7CA0" points="36.912,16.683 36.184,17.594 35.475,16.971 	"/>
	<polygon opacity="0.18" fill="#5F7CA0" points="36.184,17.594 36.393,18.541 37.16,17.791 36.912,16.683 	"/>
	<polygon opacity="0.31" fill="#5F7CA0" points="37.16,17.791 38.619,18.712 36.349,19.743 36.393,18.541 	"/>
	<polygon opacity="0.35" fill="#5F7CA0" points="38.619,18.712 38.265,19.541 37.765,20.433 37.399,20.955 36.349,19.743 	"/>
	<polygon opacity="0.31" fill="#5F7CA0" points="37.399,20.955 36.309,21.294 36.349,19.743 	"/>
	<polygon opacity="0.16" fill="#5F7CA0" points="35.475,14.131 35.795,13.424 35.351,12.966 	"/>
	<polygon opacity="0.1" fill="#5F7CA0" points="35.795,13.439 36.765,13.355 36.405,15.903 35.993,15.253 35.475,14.146 	"/>
	<polygon opacity="0.09" fill="#5F7CA0" points="36.765,13.341 37.265,12.966 37.972,14.007 36.405,15.903 	"/>
	<polygon opacity="0.17" fill="#5F7CA0" points="37.972,14.007 38.619,15.586 36.405,15.903 	"/>
	<polygon opacity="0.22" fill="#5F7CA0" points="36.912,16.683 38.619,15.586 36.405,15.903 	"/>
	<polygon opacity="0.17" fill="#5F7CA0" points="37.16,17.791 38.619,15.586 36.912,16.683 	"/>
	<polygon opacity="0.16" fill="#5F7CA0" points="38.619,15.586 38.856,17.28 39.17,16.46 39.17,15.337 	"/>
	<polygon opacity="0.2" fill="#5F7CA0" points="38.856,17.28 37.16,17.791 38.619,15.586 	"/>
	<polygon opacity="0.25" fill="#5F7CA0" points="38.856,17.28 38.751,17.791 38.619,18.712 37.16,17.791 	"/>
	<polygon opacity="0.02" fill="#5F7CA0" points="33.646,13.571 33.395,12.672 33.395,12.426 34.103,12.342 	"/>
	<polygon opacity="0.07" fill="#5F7CA0" points="33.646,13.571 34.312,13.174 34.39,12.672 34.478,12.509 34.103,12.342 	"/>
	<polygon opacity="0.04" fill="#5F7CA0" points="34.103,12.342 33.688,11.968 34.882,11.796 	"/>
	<polygon opacity="0.07" fill="#5F7CA0" points="34.882,11.796 35.04,12.384 34.478,12.509 34.103,12.342 	"/>
	<polygon opacity="0.02" fill="#5F7CA0" points="34.882,11.796 34.81,11.011 34.436,11.255 33.688,11.968 	"/>
	<polygon opacity="0.07" fill="#5F7CA0" points="34.81,11.011 35.993,11.255 34.882,11.796 	"/>
	<polygon opacity="0.16" fill="#5F7CA0" points="34.882,11.796 35.6,12.143 35.795,12.758 35.04,12.384 	"/>
	<polygon opacity="0.14" fill="#5F7CA0" points="35.6,12.143 37.137,11.927 35.993,11.255 34.882,11.796 	"/>
	<polygon opacity="0.21" fill="#5F7CA0" points="37.137,11.927 36.516,12.966 35.6,12.143 	"/>
	<polygon opacity="0.14" fill="#5F7CA0" points="37.137,11.927 38.182,12.966 37.462,12.672 37.265,12.966 36.516,12.966 	"/>
	<polygon opacity="0.09" fill="#5F7CA0" points="37.137,11.927 37.265,10.594 38.254,11.698 	"/>
	<polygon opacity="0.11" fill="#5F7CA0" points="38.254,11.698 38.573,12.957 38.182,12.966 37.137,11.927 	"/>
	<polygon opacity="0.21" fill="#5F7CA0" points="37.462,12.672 38.619,13.245 37.972,14.007 37.265,12.966 	"/>
	<polygon opacity="0.2" fill="#5F7CA0" points="38.619,13.245 38.845,15.379 39.064,14.629 39.133,13.571 	"/>
	<polygon opacity="0.31" fill="#5F7CA0" points="38.619,13.245 38.845,15.379 37.972,14.007 	"/>
	<polygon opacity="0.24" fill="#5F7CA0" points="35.993,11.255 37.265,10.594 37.137,11.927 	"/>
	<polygon opacity="0.07" fill="#5F7CA0" points="37.265,10.594 36.309,9.701 35.6,10.058 	"/>
	<polygon opacity="0.11" fill="#5F7CA0" points="35.6,10.058 35.993,11.255 37.265,10.594 	"/>
	<polygon opacity="0.15" fill="#5F7CA0" points="35.6,10.058 34.81,11.011 35.993,11.255 	"/>
	<polygon opacity="0.24" fill="#5F7CA0" points="35.6,10.058 34.312,9.701 34.571,10.287 	"/>
	<polygon opacity="0.24" fill="#5F7CA0" points="35.6,10.058 34.81,11.011 34.571,10.287 	"/>
	<polygon opacity="0.07" fill="#5F7CA0" points="35.6,10.058 34.571,8.944 34.186,9.057 34.645,9.431 34.312,9.701 	"/>
	<polygon opacity="0.02" fill="#5F7CA0" points="34.571,8.944 36.309,9.701 35.6,10.058 	"/>
	<polygon opacity="0.2" fill="#5F7CA0" points="34.571,10.287 34.228,10.013 34.478,10.804 34.186,11.255 33.771,9.756 
		34.312,9.701 	"/>
	<polygon opacity="0.25" fill="#5F7CA0" points="34.186,11.255 33.771,10.636 33.771,9.756 	"/>
	<path fill="#5F7CA0" d="M34.312,22.907"/>
	<path opacity="0.04" fill="#5F7CA0" d="M39.011,17.644c0.396-0.299-0.286,0.964-0.507,1.432c-1.759,3.744-6.223,5.353-9.968,3.592
		c-2.155-1.014-3.601-2.922-4.107-5.074C24.429,17.594,32.186,22.795,39.011,17.644z"/>
</g>
<path fill="#51687C" d="M31.8,7.951c-4.471,0-8.096,3.624-8.096,8.094c0,4.469,3.625,8.095,8.096,8.095
	c4.47,0,8.093-3.626,8.093-8.095C39.893,11.575,36.27,7.951,31.8,7.951z M31.8,23.6c-4.174,0-7.556-3.382-7.556-7.555
	c0-4.172,3.382-7.554,7.556-7.554c4.172,0,7.555,3.382,7.555,7.554C39.354,20.218,35.972,23.6,31.8,23.6z"/>
</svg>
